<svg width="900" height="600" viewBox="0 0 900 600" fill="none" xmlns="http://www.w3.org/2000/svg">
  <defs>
    <linearGradient id="sky" x1="0" y1="0" x2="0" y2="1">
      <stop offset="0%" stop-color="#dbeafe" />
      <stop offset="100%" stop-color="#fef3c7" />
    </linearGradient>
    <linearGradient id="ground" x1="0" y1="0" x2="1" y2="0">
      <stop offset="0%" stop-color="#bbf7d0" />
      <stop offset="100%" stop-color="#86efac" />
    </linearGradient>
  </defs>
  <rect width="900" height="600" fill="url(#sky)" />
  <rect y="420" width="900" height="180" fill="url(#ground)" />
  <rect x="120" y="220" width="220" height="200" rx="16" fill="#1e3a8a" />
  <rect x="160" y="260" width="140" height="120" rx="8" fill="#e2e8f0" />
  <rect x="360" y="180" width="300" height="240" rx="20" fill="#2563eb" />
  <rect x="400" y="220" width="220" height="140" rx="10" fill="#f8fafc" />
  <rect x="690" y="240" width="120" height="180" rx="14" fill="#1e40af" />
  <rect x="720" y="270" width="60" height="90" rx="6" fill="#e2e8f0" />
  <path d="M120 420 L200 340 L280 420 Z" fill="#facc15" />
  <path d="M360 420 L450 310 L540 420 Z" fill="#fde047" />
  <path d="M690 420 L750 350 L810 420 Z" fill="#fbbf24" />
  <circle cx="740" cy="120" r="46" fill="#f59e0b" />
  <text x="450" y="530" text-anchor="middle" font-family="Manrope, Arial, sans-serif" font-size="28" font-weight="700" fill="#0f172a">LPU Campus Illustration</text>
</svg>
